<?xml version="1.0" encoding="iso-8859-1"?>
<!-- Generator: Adobe Illustrator 19.0.0, SVG Export Plug-In . SVG Version: 6.00 Build 0)  -->
<svg version="1.1" id="Layer_1" xmlns="http://www.w3.org/2000/svg" xmlns:xlink="http://www.w3.org/1999/xlink" x="0px" y="0px"
	 viewBox="0 0 507.677 146.319" style="enable-background:new 0 0 507.677 146.319;" xml:space="preserve">
<g id="XMLID_724_">
	<g id="XMLID_1057_">
		<g id="XMLID_1126_">
			<path id="XMLID_1138_" d="M58.71,115.809c-3.61,4.6-9.18,7.38-15.74,7.38c-10.66,0-19.36-8.2-19.36-20
				c0-11.65,8.7-20.01,19.36-20.01c5.41,0,10.82,1.97,14.76,7.38l18.53-14.43c-8.04-9.84-20.01-16.24-33.29-16.24
				c-23.78,0-42.97,19.35-42.97,43.3c0,23.61,19.19,43.13,42.97,43.13c13.61,0,26.07-6.4,33.94-16.24L58.71,115.809z"/>
			<path id="XMLID_1136_" d="M145.677,61.319v41.54c0,15.25-9.64,20.33-19.98,20.33c-9.34,0-17.02-8.36-17.02-20.33v-41.54h-24
				v43.51c0,22.79,15.745,41.49,37.555,41.49c7.87,0,18.445-2.46,23.445-7.71v5.71h23v-83H145.677z"/>
			<path id="XMLID_1133_" d="M288.677,83.319v-22h-20v-27.34l-23,16.89v10.45h-32v-27.34l-23,16.89v10.45h-13v22h13v26.92
				c0,21.48,18,36.08,42,36.08v-22.31c-10,0-19-4.59-19-14.43v-26.26h32v26.92c0,21.48,18,36.08,43,36.08v-22.31
				c-11,0-20-4.59-20-14.43v-26.26H288.677z"/>
			<path id="XMLID_1129_" d="M341.28,123.189c-2.46,0-4.76-0.16-6.89-0.98l46.25-33.13c-5.09-15.41-20.83-29.19-41.33-29.19
				c-23.78,0-42.97,19.35-42.97,43.3c0,23.61,20.01,43.13,44.94,43.13c14.76,0,29.36-6.73,36.41-17.22l-18.54-14.27
				C355.38,120.729,348.33,123.189,341.28,123.189z M319.96,103.189c0-11.65,8.69-20.01,19.35-20.01c4.43,0,8.2,1.47,11.48,3.93
				l-30.18,21.49C320.12,106.959,319.96,105.149,319.96,103.189z"/>
			<path id="XMLID_1127_" d="M414.07,61.319h-22.393v83h24v-41.13c0-10.34,4.616-16.885,10.936-19.205
				C420.094,78.324,415.49,70.319,414.07,61.319z"/>
		</g>
		<g id="XMLID_1058_">
			<path id="XMLID_1063_" d="M455.177,46.119c-1.44-0.6-2.92-0.89-4.38-0.89c-2.9,0-5.71,1.15-7.89,3.33
				c-3.28,3.28-4.22,7.98-2.44,12.26c1.78,4.29,5.76,6.95,10.4,6.95c6.21,0,11.26-5.04,11.26-11.25
				C462.127,51.879,459.467,47.889,455.177,46.119z M450.857,61.309c-2.89,0-4.81-2.37-4.81-4.84c0-1.18,0.44-2.38,1.42-3.36
				c0.97-0.98,2.18-1.41,3.35-1.41c2.47,0,4.84,1.92,4.84,4.81C455.657,59.159,453.517,61.309,450.857,61.309z M455.177,46.119
				c-1.44-0.6-2.92-0.89-4.38-0.89c-2.9,0-5.71,1.15-7.89,3.33c-3.28,3.28-4.22,7.98-2.44,12.26c1.78,4.29,5.76,6.95,10.4,6.95
				c6.21,0,11.26-5.04,11.26-11.25C462.127,51.879,459.467,47.889,455.177,46.119z M450.857,61.309c-2.89,0-4.81-2.37-4.81-4.84
				c0-1.18,0.44-2.38,1.42-3.36c0.97-0.98,2.18-1.41,3.35-1.41c2.47,0,4.84,1.92,4.84,4.81
				C455.657,59.159,453.517,61.309,450.857,61.309z M455.177,46.119c-1.44-0.6-2.92-0.89-4.38-0.89c-2.9,0-5.71,1.15-7.89,3.33
				c-3.28,3.28-4.22,7.98-2.44,12.26c1.78,4.29,5.76,6.95,10.4,6.95c6.21,0,11.26-5.04,11.26-11.25
				C462.127,51.879,459.467,47.889,455.177,46.119z M450.857,61.309c-2.89,0-4.81-2.37-4.81-4.84c0-1.18,0.44-2.38,1.42-3.36
				c0.97-0.98,2.18-1.41,3.35-1.41c2.47,0,4.84,1.92,4.84,4.81C455.657,59.159,453.517,61.309,450.857,61.309z M455.177,46.119
				c-1.44-0.6-2.92-0.89-4.38-0.89c-2.9,0-5.71,1.15-7.89,3.33c-3.28,3.28-4.22,7.98-2.44,12.26c1.78,4.29,5.76,6.95,10.4,6.95
				c6.21,0,11.26-5.04,11.26-11.25C462.127,51.879,459.467,47.889,455.177,46.119z M450.857,61.309c-2.89,0-4.81-2.37-4.81-4.84
				c0-1.18,0.44-2.38,1.42-3.36c0.97-0.98,2.18-1.41,3.35-1.41c2.47,0,4.84,1.92,4.84,4.81
				C455.657,59.159,453.517,61.309,450.857,61.309z M463.287,43.359c-3.36-3.14-7.92-4.94-12.51-4.94c-4.75,0-9.26,1.89-12.69,5.32
				c-5.27,5.27-6.77,12.81-3.92,19.69c2.85,6.89,9.25,11.16,16.7,11.16c9.97,0,18.07-8.11,18.07-18.07
				C468.937,51.439,466.937,46.759,463.287,43.359z M450.867,70.919c-5.94,0-11.04-3.41-13.31-8.89c-1.14-2.75-1.4-5.63-0.86-8.35
				c0.09-0.45,0.21-0.9,0.34-1.34s0.29-0.88,0.47-1.31c0.72-1.72,1.79-3.31,3.18-4.7c2.8-2.79,6.38-4.25,10.09-4.25
				c1.87,0,3.76,0.37,5.6,1.13c5.49,2.27,8.89,7.37,8.89,13.31C465.267,64.459,458.807,70.919,450.867,70.919z M455.177,46.119
				c-1.44-0.6-2.92-0.89-4.38-0.89c-2.9,0-5.71,1.15-7.89,3.33c-3.28,3.28-4.22,7.98-2.44,12.26c1.78,4.29,5.76,6.95,10.4,6.95
				c6.21,0,11.26-5.04,11.26-11.25C462.127,51.879,459.467,47.889,455.177,46.119z M450.857,61.309c-2.89,0-4.81-2.37-4.81-4.84
				c0-1.18,0.44-2.38,1.42-3.36c0.97-0.98,2.18-1.41,3.35-1.41c2.47,0,4.84,1.92,4.84,4.81
				C455.657,59.159,453.517,61.309,450.857,61.309z M463.287,43.359c-3.36-3.14-7.92-4.94-12.51-4.94c-4.75,0-9.26,1.89-12.69,5.32
				c-5.27,5.27-6.77,12.81-3.92,19.69c2.85,6.89,9.25,11.16,16.7,11.16c9.97,0,18.07-8.11,18.07-18.07
				C468.937,51.439,466.937,46.759,463.287,43.359z M450.867,70.919c-5.94,0-11.04-3.41-13.31-8.89c-1.14-2.75-1.4-5.63-0.86-8.35
				c0.09-0.45,0.21-0.9,0.34-1.34s0.29-0.88,0.47-1.31c0.72-1.72,1.79-3.31,3.18-4.7c2.8-2.79,6.38-4.25,10.09-4.25
				c1.87,0,3.76,0.37,5.6,1.13c5.49,2.27,8.89,7.37,8.89,13.31C465.267,64.459,458.807,70.919,450.867,70.919z M455.177,46.119
				c-1.44-0.6-2.92-0.89-4.38-0.89c-2.9,0-5.71,1.15-7.89,3.33c-3.28,3.28-4.22,7.98-2.44,12.26c1.78,4.29,5.76,6.95,10.4,6.95
				c6.21,0,11.26-5.04,11.26-11.25C462.127,51.879,459.467,47.889,455.177,46.119z M450.857,61.309c-2.89,0-4.81-2.37-4.81-4.84
				c0-1.18,0.44-2.38,1.42-3.36c0.97-0.98,2.18-1.41,3.35-1.41c2.47,0,4.84,1.92,4.84,4.81
				C455.657,59.159,453.517,61.309,450.857,61.309z M450.657,25.079c-7.71,0-15.58,2.86-21.97,9.26c-6.4,6.39-9.26,14.26-9.26,21.97
				c0,16.14,12.53,31.62,31.46,31.62c17.34,0,31.39-14.05,31.39-31.39C482.277,37.609,466.797,25.079,450.657,25.079z
				 M450.867,76.589c-8.27,0-15.38-4.75-18.55-12.39c-3.16-7.64-1.49-16.03,4.36-21.88c3.8-3.8,8.81-5.9,14.1-5.9
				c5.09,0,10.15,1.99,13.88,5.48c4.05,3.78,6.28,8.98,6.28,14.62C470.937,67.589,461.937,76.589,450.867,76.589z M450.777,38.419
				c-4.75,0-9.26,1.89-12.69,5.32c-5.27,5.27-6.77,12.81-3.92,19.69c2.85,6.89,9.25,11.16,16.7,11.16c9.97,0,18.07-8.11,18.07-18.07
				c0-5.08-2-9.76-5.65-13.16C459.927,40.219,455.367,38.419,450.777,38.419z M450.867,70.919c-5.94,0-11.04-3.41-13.31-8.89
				c-1.14-2.75-1.4-5.63-0.86-8.35c0.09-0.45,0.21-0.9,0.34-1.34s0.29-0.88,0.47-1.31c0.72-1.72,1.79-3.31,3.18-4.7
				c2.8-2.79,6.38-4.25,10.09-4.25c1.87,0,3.76,0.37,5.6,1.13c5.49,2.27,8.89,7.37,8.89,13.31
				C465.267,64.459,458.807,70.919,450.867,70.919z M455.177,46.119c-1.44-0.6-2.92-0.89-4.38-0.89c-2.9,0-5.71,1.15-7.89,3.33
				c-3.28,3.28-4.22,7.98-2.44,12.26c1.78,4.29,5.76,6.95,10.4,6.95c6.21,0,11.26-5.04,11.26-11.25
				C462.127,51.879,459.467,47.889,455.177,46.119z M450.857,61.309c-2.89,0-4.81-2.37-4.81-4.84c0-1.18,0.44-2.38,1.42-3.36
				c0.97-0.98,2.18-1.41,3.35-1.41c2.47,0,4.84,1.92,4.84,4.81C455.657,59.159,453.517,61.309,450.857,61.309z M455.177,46.119
				c-1.44-0.6-2.92-0.89-4.38-0.89c-2.9,0-5.71,1.15-7.89,3.33c-3.28,3.28-4.22,7.98-2.44,12.26c1.78,4.29,5.76,6.95,10.4,6.95
				c6.21,0,11.26-5.04,11.26-11.25C462.127,51.879,459.467,47.889,455.177,46.119z M450.857,61.309c-2.89,0-4.81-2.37-4.81-4.84
				c0-1.18,0.44-2.38,1.42-3.36c0.97-0.98,2.18-1.41,3.35-1.41c2.47,0,4.84,1.92,4.84,4.81
				C455.657,59.159,453.517,61.309,450.857,61.309z M455.177,46.119c-1.44-0.6-2.92-0.89-4.38-0.89c-2.9,0-5.71,1.15-7.89,3.33
				c-3.28,3.28-4.22,7.98-2.44,12.26c1.78,4.29,5.76,6.95,10.4,6.95c6.21,0,11.26-5.04,11.26-11.25
				C462.127,51.879,459.467,47.889,455.177,46.119z M450.857,61.309c-2.89,0-4.81-2.37-4.81-4.84c0-1.18,0.44-2.38,1.42-3.36
				c0.97-0.98,2.18-1.41,3.35-1.41c2.47,0,4.84,1.92,4.84,4.81C455.657,59.159,453.517,61.309,450.857,61.309z"/>
			<g id="XMLID_1061_">
				<path id="XMLID_1062_" d="M416.768,46.879c1.559-5.802,4.66-10.95,9.212-15.502c6.616-6.616,14.911-10.143,24.018-10.217
					l-0.321,0.138V0c-28,0-49.797,20.319-55.634,46.319h22.722L416.768,46.879z"/>
			</g>
			<g id="XMLID_1059_">
				<path id="XMLID_1060_" d="M492.014,93.172l-38.336,38.537V91.63c18-1.23,32.589-16.501,32.589-35.093
					c0-9.906-3.793-18.994-10.861-25.593c-5.928-5.54-13.728-8.941-21.728-9.551V0.137c16,0,29.978,6.718,39.525,16.941
					C511.869,37.07,514.731,70.455,492.014,93.172z"/>
			</g>
		</g>
	</g>
</g>
</svg>
