<?xml version="1.0" encoding="iso-8859-1"?>
<!-- Generator: Adobe Illustrator 19.0.0, SVG Export Plug-In . SVG Version: 6.00 Build 0)  -->
<svg version="1.1" id="Layer_1" xmlns="http://www.w3.org/2000/svg" xmlns:xlink="http://www.w3.org/1999/xlink" x="0px" y="0px"
	 viewBox="0 0 246.717 285.448" style="enable-background:new 0 0 246.717 285.448;" xml:space="preserve">
<g id="XMLID_127_">
	<g id="XMLID_1538_">
		<path id="XMLID_1543_" d="M132.49,99.94c-3.11-1.29-6.33-1.91-9.49-1.91c-6.28,0-12.37,2.48-17.1,7.2
			c-7.11,7.11-9.13,17.3-5.29,26.59c3.86,9.29,12.49,15.06,22.55,15.06c13.45,0,24.39-10.94,24.39-24.39
			C147.55,112.43,141.79,103.79,132.49,99.94z M123.14,132.88c-6.28,0-10.43-5.14-10.43-10.49c0-2.56,0.94-5.16,3.06-7.28
			c2.13-2.12,4.73-3.07,7.28-3.07c5.36,0,10.49,4.15,10.49,10.43C133.54,128.22,128.89,132.88,123.14,132.88z M132.49,99.94
			c-3.11-1.29-6.33-1.91-9.49-1.91c-6.28,0-12.37,2.48-17.1,7.2c-7.11,7.11-9.13,17.3-5.29,26.59c3.86,9.29,12.49,15.06,22.55,15.06
			c13.45,0,24.39-10.94,24.39-24.39C147.55,112.43,141.79,103.79,132.49,99.94z M123.14,132.88c-6.28,0-10.43-5.14-10.43-10.49
			c0-2.56,0.94-5.16,3.06-7.28c2.13-2.12,4.73-3.07,7.28-3.07c5.36,0,10.49,4.15,10.49,10.43
			C133.54,128.22,128.89,132.88,123.14,132.88z M132.49,99.94c-3.11-1.29-6.33-1.91-9.49-1.91c-6.28,0-12.37,2.48-17.1,7.2
			c-7.11,7.11-9.13,17.3-5.29,26.59c3.86,9.29,12.49,15.06,22.55,15.06c13.45,0,24.39-10.94,24.39-24.39
			C147.55,112.43,141.79,103.79,132.49,99.94z M123.14,132.88c-6.28,0-10.43-5.14-10.43-10.49c0-2.56,0.94-5.16,3.06-7.28
			c2.13-2.12,4.73-3.07,7.28-3.07c5.36,0,10.49,4.15,10.49,10.43C133.54,128.22,128.89,132.88,123.14,132.88z M132.49,99.94
			c-3.11-1.29-6.33-1.91-9.49-1.91c-6.28,0-12.37,2.48-17.1,7.2c-7.11,7.11-9.13,17.3-5.29,26.59c3.86,9.29,12.49,15.06,22.55,15.06
			c13.45,0,24.39-10.94,24.39-24.39C147.55,112.43,141.79,103.79,132.49,99.94z M123.14,132.88c-6.28,0-10.43-5.14-10.43-10.49
			c0-2.56,0.94-5.16,3.06-7.28c2.13-2.12,4.73-3.07,7.28-3.07c5.36,0,10.49,4.15,10.49,10.43
			C133.54,128.22,128.89,132.88,123.14,132.88z M150.07,93.96c-7.28-6.8-17.16-10.7-27.12-10.7c-10.29,0-20.06,4.09-27.49,11.53
			c-11.42,11.41-14.67,27.77-8.5,42.69c6.18,14.91,20.05,24.18,36.19,24.18c21.6,0,39.18-17.57,39.18-39.17
			C162.33,111.47,157.97,101.34,150.07,93.96z M123.15,153.7c-10.05,0-18.99-4.5-24.77-12.14c-0.46-0.61-0.91-1.25-1.32-1.9
			c-0.32-0.48-0.63-0.98-0.92-1.49s-0.56-1.03-0.83-1.56c-0.35-0.71-0.68-1.44-0.99-2.18c-0.82-1.99-1.44-4.01-1.85-6.04
			c-2.03-10.09,1.03-20.4,8.61-27.97c0.53-0.53,1.07-1.02,1.61-1.5c0.35-0.3,0.7-0.38,1.05-0.66c0.2-0.16,0.39-0.26,0.59-0.26h0.01
			c0.52-1,1.05-1,1.58-1.36c0.43-0.29,0.87-0.68,1.3-0.94c0.43-0.26,0.87-0.565,1.32-0.805s0.9-0.497,1.35-0.718
			c0.46-0.22,0.92-0.444,1.38-0.634c0.47-0.19,0.93-0.377,1.4-0.547c0.47-0.17,0.95-0.333,1.43-0.483
			c2.87-0.87,5.84-1.322,8.86-1.322c4.05,0,8.16,0.809,12.14,2.459c11.89,4.92,19.27,15.97,19.27,28.84
			C154.37,139.7,140.37,153.7,123.15,153.7z M132.49,99.94c-3.11-1.29-6.33-1.91-9.49-1.91c-6.28,0-12.37,2.48-17.1,7.2
			c-7.11,7.11-9.13,17.3-5.29,26.59c3.86,9.29,12.49,15.06,22.55,15.06c13.45,0,24.39-10.94,24.39-24.39
			C147.55,112.43,141.79,103.79,132.49,99.94z M123.14,132.88c-6.28,0-10.43-5.14-10.43-10.49c0-2.56,0.94-5.16,3.06-7.28
			c2.13-2.12,4.73-3.07,7.28-3.07c5.36,0,10.49,4.15,10.49,10.43C133.54,128.22,128.89,132.88,123.14,132.88z M150.07,93.96
			c-7.28-6.8-17.16-10.7-27.12-10.7c-10.29,0-20.06,4.09-27.49,11.53c-11.42,11.41-14.67,27.77-8.5,42.69
			c6.18,14.91,20.05,24.18,36.19,24.18c21.6,0,39.18-17.57,39.18-39.17C162.33,111.47,157.97,101.34,150.07,93.96z M123.15,153.7
			c-10.05,0-18.99-4.5-24.77-12.14c-0.46-0.61-0.91-1.25-1.32-1.9c-0.32-0.48-0.63-0.98-0.92-1.49s-0.56-1.03-0.83-1.56
			c-0.35-0.71-0.68-1.44-0.99-2.18c-0.82-1.99-1.44-4.01-1.85-6.04c-2.03-10.09,1.03-20.4,8.61-27.97c0.53-0.53,1.07-1.02,1.61-1.5
			c0.35-0.3,0.7-0.38,1.05-0.66c0.2-0.16,0.39-0.26,0.59-0.26h0.01c0.52-1,1.05-1,1.58-1.36c0.43-0.29,0.87-0.68,1.3-0.94
			c0.43-0.26,0.87-0.565,1.32-0.805s0.9-0.497,1.35-0.718c0.46-0.22,0.92-0.444,1.38-0.634c0.47-0.19,0.93-0.377,1.4-0.547
			c0.47-0.17,0.95-0.333,1.43-0.483c2.87-0.87,5.84-1.322,8.86-1.322c4.05,0,8.16,0.809,12.14,2.459
			c11.89,4.92,19.27,15.97,19.27,28.84C154.37,139.7,140.37,153.7,123.15,153.7z M132.49,99.94c-3.11-1.29-6.33-1.91-9.49-1.91
			c-6.28,0-12.37,2.48-17.1,7.2c-7.11,7.11-9.13,17.3-5.29,26.59c3.86,9.29,12.49,15.06,22.55,15.06
			c13.45,0,24.39-10.94,24.39-24.39C147.55,112.43,141.79,103.79,132.49,99.94z M123.14,132.88c-6.28,0-10.43-5.14-10.43-10.49
			c0-2.56,0.94-5.16,3.06-7.28c2.13-2.12,4.73-3.07,7.28-3.07c5.36,0,10.49,4.15,10.49,10.43
			C133.54,128.22,128.89,132.88,123.14,132.88z M122.71,54.35c-16.73,0-33.77,6.2-47.63,20.06c-13.86,13.87-20.06,30.91-20.06,47.63
			c0,34.98,27.16,68.53,68.18,68.53c37.57,0,68.04-30.46,68.04-68.04C191.24,81.51,157.69,54.35,122.71,54.35z M123.15,165.66
			c-17.79,0-33.07-10.21-39.88-26.65s-3.22-34.47,9.36-47.05c8.19-8.19,18.96-12.7,30.32-12.7c10.96,0,21.84,4.29,29.85,11.78
			c8.72,8.14,13.53,19.31,13.53,31.45C166.33,146.29,146.96,165.66,123.15,165.66z M150.07,93.96c-7.28-6.8-17.16-10.7-27.12-10.7
			c-10.29,0-20.06,4.09-27.49,11.53c-11.42,11.41-14.67,27.77-8.5,42.69c6.18,14.91,20.05,24.18,36.19,24.18
			c21.6,0,39.18-17.57,39.18-39.17C162.33,111.47,157.97,101.34,150.07,93.96z M123.15,153.7c-10.05,0-18.99-4.5-24.77-12.14
			c-0.46-0.61-0.91-1.25-1.32-1.9c-0.32-0.48-0.63-0.98-0.92-1.49s-0.56-1.03-0.83-1.56c-0.35-0.71-0.68-1.44-0.99-2.18
			c-0.82-1.99-1.44-4.01-1.85-6.04c-2.03-10.09,1.03-20.4,8.61-27.97c0.53-0.53,1.07-1.02,1.61-1.5c0.35-0.3,0.7-0.38,1.05-0.66
			c0.2-0.16,0.39-0.26,0.59-0.26h0.01c0.52-1,1.05-1,1.58-1.36c0.43-0.29,0.87-0.68,1.3-0.94c0.43-0.26,0.87-0.565,1.32-0.805
			s0.9-0.497,1.35-0.718c0.46-0.22,0.92-0.444,1.38-0.634c0.47-0.19,0.93-0.377,1.4-0.547c0.47-0.17,0.95-0.333,1.43-0.483
			c2.87-0.87,5.84-1.322,8.86-1.322c4.05,0,8.16,0.809,12.14,2.459c11.89,4.92,19.27,15.97,19.27,28.84
			C154.37,139.7,140.37,153.7,123.15,153.7z M132.49,99.94c-3.11-1.29-6.33-1.91-9.49-1.91c-6.28,0-12.37,2.48-17.1,7.2
			c-7.11,7.11-9.13,17.3-5.29,26.59c3.86,9.29,12.49,15.06,22.55,15.06c13.45,0,24.39-10.94,24.39-24.39
			C147.55,112.43,141.79,103.79,132.49,99.94z M123.14,132.88c-6.28,0-10.43-5.14-10.43-10.49c0-2.56,0.94-5.16,3.06-7.28
			c2.13-2.12,4.73-3.07,7.28-3.07c5.36,0,10.49,4.15,10.49,10.43C133.54,128.22,128.89,132.88,123.14,132.88z M132.49,99.94
			c-3.11-1.29-6.33-1.91-9.49-1.91c-6.28,0-12.37,2.48-17.1,7.2c-7.11,7.11-9.13,17.3-5.29,26.59c3.86,9.29,12.49,15.06,22.55,15.06
			c13.45,0,24.39-10.94,24.39-24.39C147.55,112.43,141.79,103.79,132.49,99.94z M123.14,132.88c-6.28,0-10.43-5.14-10.43-10.49
			c0-2.56,0.94-5.16,3.06-7.28c2.13-2.12,4.73-3.07,7.28-3.07c5.36,0,10.49,4.15,10.49,10.43
			C133.54,128.22,128.89,132.88,123.14,132.88z M132.49,99.94c-3.11-1.29-6.33-1.91-9.49-1.91c-6.28,0-12.37,2.48-17.1,7.2
			c-7.11,7.11-9.13,17.3-5.29,26.59c3.86,9.29,12.49,15.06,22.55,15.06c13.45,0,24.39-10.94,24.39-24.39
			C147.55,112.43,141.79,103.79,132.49,99.94z M123.14,132.88c-6.28,0-10.43-5.14-10.43-10.49c0-2.56,0.94-5.16,3.06-7.28
			c2.13-2.12,4.73-3.07,7.28-3.07c5.36,0,10.49,4.15,10.49,10.43C133.54,128.22,128.89,132.88,123.14,132.88z"/>
		<g id="XMLID_1541_">
			<path id="XMLID_1542_" d="M49.251,101.407C52.63,88.833,59.35,77.772,69.217,67.905c14.339-14.339,32.03-21.934,51.766-22.095
				L120,46.158V0C60,0,12.652,44,0,100h49.244L49.251,101.407z"/>
		</g>
		<g id="XMLID_1539_">
			<path id="XMLID_1540_" d="M211.707,201.929L128,285.448v-86.862c40-2.666,71.25-35.762,71.25-76.055
				c0-21.469-8.532-41.165-23.85-55.468c-12.847-12.006-29.4-19.378-47.4-20.7V0.297c36,0,65.281,14.559,85.971,36.715
				C254.429,80.341,260.941,152.695,211.707,201.929z"/>
		</g>
	</g>
</g>
</svg>
