<?xml version="1.0" encoding="iso-8859-1"?>
<!-- Generator: Adobe Illustrator 19.0.0, SVG Export Plug-In . SVG Version: 6.00 Build 0)  -->
<svg version="1.1" id="Layer_1" xmlns="http://www.w3.org/2000/svg" xmlns:xlink="http://www.w3.org/1999/xlink" x="0px" y="0px"
	 viewBox="0 0 224.842 322.338" style="enable-background:new 0 0 224.842 322.338;" xml:space="preserve">
<g id="XMLID_745_">
	<g id="XMLID_111_">
		<g id="XMLID_1096_">
			<path id="XMLID_1107_" style="fill:#1F293B;" d="M46.281,309.088c-1.47,1.87-3.75,3.01-6.43,3.01c-4.36,0-7.91-3.35-7.91-8.17
				c0-4.76,3.55-8.18,7.91-8.18c2.21,0,4.42,0.81,6.03,3.02l7.57-5.9c-3.28-4.02-8.17-6.63-13.6-6.63c-9.72,0-17.56,7.9-17.56,17.69
				c0,9.65,7.84,17.62,17.56,17.62c5.56,0,10.65-2.61,13.87-6.63L46.281,309.088z"/>
			<path id="XMLID_1105_" style="fill:#1F293B;" d="M81.285,286.548v17.24c0,6.23-3.89,8.31-8.11,8.31c-3.82,0-6.89-3.42-6.89-8.31
				v-17.24h-9v18.05c0,9.31,5.97,16.95,14.88,16.95c3.22,0,7.12-1.01,9.12-3.15v2.15h10v-34H81.285z"/>
			<path id="XMLID_1103_" style="fill:#1F293B;" d="M140.285,295.548v-9h-8v-10.9l-10,6.9v4h-13v-10.9l-9,6.9v4h-5v9h5v11.26
				c0,8.78,7,14.74,17,14.74v-9.11c-4,0-8-1.88-8-5.9v-10.99h13v11.26c0,8.78,8,14.74,18,14.74v-9.11c-5,0-8-1.88-8-5.9v-10.99
				H140.285z"/>
			<path id="XMLID_1099_" style="fill:#1F293B;" d="M161.721,312.098c-1,0-1.94-0.07-2.81-0.4l18.89-13.53
				c-2.08-6.3-8.51-11.93-16.88-11.93c-9.72,0-17.56,7.9-17.56,17.69c0,9.65,8.18,17.62,18.36,17.62c6.03,0,11.99-2.75,14.87-7.04
				l-7.57-5.83C167.481,311.098,164.601,312.098,161.721,312.098z M153.011,303.928c0-4.76,3.55-8.18,7.91-8.18
				c1.81,0,3.35,0.61,4.69,1.61l-12.33,8.78C153.081,305.468,153.011,304.728,153.011,303.928z"/>
			<path id="XMLID_1097_" style="fill:#1F293B;" d="M192.378,288.648c-0.24,0.21-0.093,0.43-1.093,0.67v-2.77h-9v34h9v-16.62
				c0-4.9,2.756-7.62,5.966-8.09C195.312,293.648,193.798,291.238,192.378,288.648z"/>
		</g>
	</g>
	<g id="XMLID_332_">
		<path id="XMLID_457_" style="fill:#23C29C;" d="M119.876,90.18c-2.828-1.176-5.758-1.745-8.632-1.745
			c-5.721,0-11.264,2.258-15.566,6.56c-6.477,6.467-8.315,15.743-4.815,24.198c3.509,8.455,11.367,13.709,20.521,13.709
			c12.244,0,22.201-9.957,22.201-22.201C133.585,101.547,128.34,93.679,119.876,90.18z M111.365,120.155
			c-5.711,0-9.491-4.675-9.491-9.547c0-2.324,0.859-4.694,2.79-6.626c1.932-1.932,4.302-2.79,6.626-2.79
			c4.871,0,9.547,3.78,9.547,9.491C120.837,115.918,116.6,120.155,111.365,120.155z M119.876,90.18
			c-2.828-1.176-5.758-1.745-8.632-1.745c-5.721,0-11.264,2.258-15.566,6.56c-6.477,6.467-8.315,15.743-4.815,24.198
			c3.509,8.455,11.367,13.709,20.521,13.709c12.244,0,22.201-9.957,22.201-22.201C133.585,101.547,128.34,93.679,119.876,90.18z
			 M111.365,120.155c-5.711,0-9.491-4.675-9.491-9.547c0-2.324,0.859-4.694,2.79-6.626c1.932-1.932,4.302-2.79,6.626-2.79
			c4.871,0,9.547,3.78,9.547,9.491C120.837,115.918,116.6,120.155,111.365,120.155z M110.973,48.68
			c-15.221,0-30.731,5.646-43.348,18.263S49.362,95.07,49.362,110.291c0,31.841,24.721,62.376,62.059,62.376
			c34.202,0,61.928-27.726,61.928-61.928C173.349,73.401,142.814,48.68,110.973,48.68z M111.383,139.108
			c-11.712,0-21.772-6.719-26.251-17.535c-4.479-10.825-2.128-22.686,6.159-30.964c8.278-8.287,20.148-10.639,30.964-6.159
			c10.816,4.479,17.535,14.54,17.535,26.251C139.79,126.37,127.052,139.108,111.383,139.108z M119.876,90.18
			c-2.828-1.176-5.758-1.745-8.632-1.745c-5.721,0-11.264,2.258-15.566,6.56c-6.477,6.467-8.315,15.743-4.815,24.198
			c3.509,8.455,11.367,13.709,20.521,13.709c12.244,0,22.201-9.957,22.201-22.201C133.585,101.547,128.34,93.679,119.876,90.18z
			 M111.365,120.155c-5.711,0-9.491-4.675-9.491-9.547c0-2.324,0.859-4.694,2.79-6.626c1.932-1.932,4.302-2.79,6.626-2.79
			c4.871,0,9.547,3.78,9.547,9.491C120.837,115.918,116.6,120.155,111.365,120.155z"/>
		<g id="XMLID_454_">
			<path id="XMLID_455_" style="fill:#1F293B;" d="M44.114,91.67c3.075-11.445,9.192-21.592,18.173-30.573
				c13.051-13.051,29.041-20.004,47.005-20.151l-1.007,0.277V-0.79c-54,0-97.484,40.338-109,91.338h44.822L44.114,91.67z"/>
		</g>
		<path id="XMLID_453_" style="fill:#1F293B;" d="M192.153,183.007l-76.02,76.02v-79.062c36.078-2.426,64.681-32.551,64.681-69.226
			c0-19.542-7.68-37.469-21.623-50.487c-11.693-10.928-27.147-17.638-43.059-18.842V-0.519c32.401,0,59.334,13.252,78.166,33.418
			C231.124,72.337,236.966,138.194,192.153,183.007z"/>
		<path id="XMLID_333_" style="fill:#1F293B;" d="M135.884,84.737c-6.63-6.192-15.628-9.744-24.686-9.744h0
			c-9.374,0-18.262,3.727-25.029,10.494c-10.391,10.391-13.352,25.279-7.729,38.856c5.624,13.576,18.245,22.01,32.94,22.01
			c19.66,0,35.654-15.994,35.654-35.654C147.035,100.672,143.075,91.452,135.884,84.737z M111.381,139.112
			c-11.711,0-21.769-6.721-26.251-17.541c-4.481-10.819-2.122-22.685,6.159-30.965c8.281-8.28,20.146-10.641,30.966-6.16
			c10.819,4.482,17.541,14.54,17.541,26.251C139.795,126.366,127.049,139.112,111.381,139.112z"/>
	</g>
</g>
</svg>
