<?xml version="1.0" encoding="iso-8859-1"?>
<!-- Generator: Adobe Illustrator 19.0.0, SVG Export Plug-In . SVG Version: 6.00 Build 0)  -->
<svg version="1.1" id="Layer_1" xmlns="http://www.w3.org/2000/svg" xmlns:xlink="http://www.w3.org/1999/xlink" x="0px" y="0px"
	 viewBox="0 0 507.677 146.319" style="enable-background:new 0 0 507.677 146.319;" xml:space="preserve">
<g id="XMLID_581_">
	<g id="XMLID_405_">
		<path id="XMLID_407_" style="fill:#1F293B;" d="M58.975,115.649c-3.61,4.6-9.18,7.38-15.74,7.38c-10.66,0-19.36-8.2-19.36-20
			c0-11.65,8.7-20.01,19.36-20.01c5.41,0,10.82,1.97,14.76,7.38l18.53-14.43c-8.04-9.84-20.01-16.24-33.29-16.24
			c-23.78,0-42.97,19.35-42.97,43.3c0,23.61,19.19,43.13,42.97,43.13c13.61,0,26.07-6.4,33.94-16.24L58.975,115.649z"/>
		<path id="XMLID_693_" style="fill:#1F293B;" d="M145.942,61.159v41.54c0,15.25-9.64,20.33-19.98,20.33
			c-9.34,0-17.02-8.36-17.02-20.33v-41.54h-24v43.51c0,22.79,15.745,41.49,37.555,41.49c7.87,0,18.445-2.46,23.445-7.71v5.71h23v-83
			H145.942z"/>
		<path id="XMLID_695_" style="fill:#1F293B;" d="M288.942,83.159v-22h-20v-27.34l-23,16.89v10.45h-32v-27.34l-23,16.89v10.45h-13
			v22h13v26.92c0,21.48,18,36.08,42,36.08v-22.31c-10,0-19-4.59-19-14.43v-26.26h32v26.92c0,21.48,18,36.08,43,36.08v-22.31
			c-11,0-20-4.59-20-14.43v-26.26H288.942z"/>
		<path id="XMLID_698_" style="fill:#1F293B;" d="M341.545,123.029c-2.46,0-4.76-0.16-6.89-0.98l46.25-33.13
			c-5.09-15.41-20.83-29.19-41.33-29.19c-23.78,0-42.97,19.35-42.97,43.3c0,23.61,20.01,43.13,44.94,43.13
			c14.76,0,29.36-6.73,36.41-17.22l-18.54-14.27C355.645,120.569,348.595,123.029,341.545,123.029z M320.225,103.029
			c0-11.65,8.69-20.01,19.35-20.01c4.43,0,8.2,1.47,11.48,3.93l-30.18,21.49C320.385,106.799,320.225,104.989,320.225,103.029z"/>
		<path id="XMLID_703_" style="fill:#1F293B;" d="M414.335,61.159h-22.393v83h24v-41.13c0-10.34,4.616-16.885,10.936-19.205
			C420.359,78.164,415.755,70.159,414.335,61.159z"/>
	</g>
	<g id="XMLID_398_">
		<path id="XMLID_406_" style="fill:#23C29C;" d="M455.439,45.956c-1.433-0.596-2.919-0.885-4.376-0.885
			c-2.9,0-5.71,1.145-7.891,3.326c-3.283,3.278-4.215,7.981-2.441,12.267c1.779,4.286,5.762,6.949,10.403,6.949
			c6.207,0,11.254-5.048,11.254-11.254C462.388,51.718,459.73,47.73,455.439,45.956z M451.124,61.151
			c-2.895,0-4.811-2.37-4.811-4.84c0-1.178,0.435-2.38,1.414-3.359c0.979-0.979,2.181-1.414,3.359-1.414
			c2.469,0,4.84,1.916,4.84,4.811C455.926,59.004,453.778,61.151,451.124,61.151z M455.439,45.956
			c-1.433-0.596-2.919-0.885-4.376-0.885c-2.9,0-5.71,1.145-7.891,3.326c-3.283,3.278-4.215,7.981-2.441,12.267
			c1.779,4.286,5.762,6.949,10.403,6.949c6.207,0,11.254-5.048,11.254-11.254C462.388,51.718,459.73,47.73,455.439,45.956z
			 M451.124,61.151c-2.895,0-4.811-2.37-4.811-4.84c0-1.178,0.435-2.38,1.414-3.359c0.979-0.979,2.181-1.414,3.359-1.414
			c2.469,0,4.84,1.916,4.84,4.811C455.926,59.004,453.778,61.151,451.124,61.151z M450.926,24.918
			c-7.716,0-15.578,2.862-21.974,9.258c-6.396,6.396-9.258,14.259-9.258,21.974c0,16.141,12.532,31.62,31.46,31.62
			c17.338,0,31.393-14.055,31.393-31.393C482.546,37.45,467.067,24.918,450.926,24.918z M451.134,70.76
			c-5.937,0-11.037-3.406-13.308-8.889c-2.271-5.488-1.079-11.5,3.122-15.697c4.196-4.201,10.214-5.393,15.697-3.122
			c5.483,2.271,8.889,7.371,8.889,13.308C465.534,64.302,459.077,70.76,451.134,70.76z M455.439,45.956
			c-1.433-0.596-2.919-0.885-4.376-0.885c-2.9,0-5.71,1.145-7.891,3.326c-3.283,3.278-4.215,7.981-2.441,12.267
			c1.779,4.286,5.762,6.949,10.403,6.949c6.207,0,11.254-5.048,11.254-11.254C462.388,51.718,459.73,47.73,455.439,45.956z
			 M451.124,61.151c-2.895,0-4.811-2.37-4.811-4.84c0-1.178,0.435-2.38,1.414-3.359c0.979-0.979,2.181-1.414,3.359-1.414
			c2.469,0,4.84,1.916,4.84,4.811C455.926,59.004,453.778,61.151,451.124,61.151z"/>
		<g id="XMLID_403_">
			<path id="XMLID_404_" style="fill:#1F293B;" d="M417.033,46.72c1.559-5.802,4.66-10.95,9.212-15.502
				c6.616-6.616,14.911-10.143,24.018-10.217l-0.321,0.138V-0.159c-28,0-49.797,20.319-55.634,46.319h22.722L417.033,46.72z"/>
		</g>
		<path id="XMLID_402_" style="fill:#1F293B;" d="M492.079,93.013l-38.537,38.537V91.471c18.289-1.23,32.789-16.501,32.789-35.093
			c0-9.906-3.893-18.994-10.961-25.593c-5.928-5.54-13.762-8.941-21.828-9.551V-0.022c16.425,0,30.078,6.718,39.625,16.941
			C511.834,36.911,514.796,70.296,492.079,93.013z"/>
		<path id="XMLID_399_" style="fill:#1F293B;" d="M463.554,43.197c-3.361-3.139-7.922-4.939-12.514-4.939h0
			c-4.752,0-9.258,1.889-12.688,5.32c-5.267,5.267-6.769,12.815-3.918,19.697c2.851,6.882,9.249,11.157,16.698,11.157
			c9.966,0,18.074-8.108,18.074-18.074C469.207,51.275,467.199,46.601,463.554,43.197z M451.133,70.761
			c-5.937,0-11.035-3.407-13.308-8.892c-2.272-5.485-1.076-11.5,3.122-15.697c4.198-4.198,10.213-5.394,15.697-3.123
			c5.485,2.272,8.892,7.371,8.892,13.308C465.536,64.3,459.075,70.761,451.133,70.761z"/>
	</g>
</g>
</svg>
