<?xml version="1.0" encoding="iso-8859-1"?>
<!-- Generator: Adobe Illustrator 19.0.0, SVG Export Plug-In . SVG Version: 6.00 Build 0)  -->
<svg version="1.1" id="Layer_1" xmlns="http://www.w3.org/2000/svg" xmlns:xlink="http://www.w3.org/1999/xlink" x="0px" y="0px"
	 viewBox="0 0 246.717 285.448" style="enable-background:new 0 0 246.717 285.448;" xml:space="preserve">
<g id="XMLID_279_">
	<path id="XMLID_326_" style="fill:#23C29C;" d="M131.849,100.308c-3.107-1.292-6.326-1.917-9.484-1.917
		c-6.285,0-12.375,2.481-17.102,7.208c-7.115,7.105-9.135,17.296-5.29,26.585c3.855,9.289,12.488,15.061,22.546,15.061
		c13.452,0,24.391-10.94,24.391-24.391C146.91,112.796,141.148,104.153,131.849,100.308z M122.499,133.24
		c-6.275,0-10.427-5.137-10.427-10.489c0-2.553,0.943-5.157,3.066-7.279c2.122-2.122,4.727-3.066,7.279-3.066
		c5.352,0,10.489,4.152,10.489,10.427C132.905,128.585,128.25,133.24,122.499,133.24z M131.849,100.308
		c-3.107-1.292-6.326-1.917-9.484-1.917c-6.285,0-12.375,2.481-17.102,7.208c-7.115,7.105-9.135,17.296-5.29,26.585
		c3.855,9.289,12.488,15.061,22.546,15.061c13.452,0,24.391-10.94,24.391-24.391C146.91,112.796,141.148,104.153,131.849,100.308z
		 M122.499,133.24c-6.275,0-10.427-5.137-10.427-10.489c0-2.553,0.943-5.157,3.066-7.279c2.122-2.122,4.727-3.066,7.279-3.066
		c5.352,0,10.489,4.152,10.489,10.427C132.905,128.585,128.25,133.24,122.499,133.24z M122.068,54.714
		c-16.722,0-33.762,6.203-47.624,20.065s-20.065,30.902-20.065,47.624c0,34.983,27.16,68.53,68.181,68.53
		c37.577,0,68.038-30.461,68.038-68.038C190.598,81.874,157.051,54.714,122.068,54.714z M122.519,154.064
		c-12.867,0-23.92-7.382-28.841-19.265c-4.921-11.893-2.338-24.925,6.767-34.019c9.094-9.104,22.136-11.688,34.019-6.767
		c11.883,4.921,19.265,15.974,19.265,28.841C153.729,140.069,139.734,154.064,122.519,154.064z M131.849,100.308
		c-3.107-1.292-6.326-1.917-9.484-1.917c-6.285,0-12.375,2.481-17.102,7.208c-7.115,7.105-9.135,17.296-5.29,26.585
		c3.855,9.289,12.488,15.061,22.546,15.061c13.452,0,24.391-10.94,24.391-24.391C146.91,112.796,141.148,104.153,131.849,100.308z
		 M122.499,133.24c-6.275,0-10.427-5.137-10.427-10.489c0-2.553,0.943-5.157,3.066-7.279c2.122-2.122,4.727-3.066,7.279-3.066
		c5.352,0,10.489,4.152,10.489,10.427C132.905,128.585,128.25,133.24,122.499,133.24z"/>
	<g id="XMLID_307_">
		<path id="XMLID_310_" style="fill:#1F293B;" d="M48.614,101.771c3.378-12.574,10.099-23.635,19.965-33.502
			c14.339-14.339,32.03-21.934,51.766-22.095l-0.982,0.348V0.364c-60,0-107.348,44-120,100h49.244L48.614,101.771z"/>
	</g>
	<path id="XMLID_305_" style="fill:#1F293B;" d="M211.257,202.293l-83.519,83.519V198.95c39.637-2.666,71.062-35.762,71.062-76.055
		c0-21.469-8.438-41.165-23.756-55.468c-12.847-12.006-29.825-19.378-47.306-20.7V0.661c35.598,0,65.187,14.559,85.877,36.715
		C254.073,80.705,260.491,153.059,211.257,202.293z"/>
	<path id="XMLID_281_" style="fill:#1F293B;" d="M149.437,94.328c-7.284-6.803-17.169-10.705-27.121-10.705h0
		c-10.298,0-20.064,4.095-27.498,11.529c-11.416,11.416-14.67,27.773-8.491,42.689c6.178,14.915,20.045,24.181,36.19,24.181
		c21.599,0,39.172-17.572,39.172-39.171C161.688,111.836,157.337,101.706,149.437,94.328z M122.516,154.068
		c-12.866,0-23.917-7.384-28.841-19.271c-4.923-11.887-2.331-24.923,6.766-34.019c9.098-9.097,22.134-11.691,34.02-6.767
		c11.887,4.924,19.271,15.975,19.271,28.841C153.733,140.064,139.73,154.068,122.516,154.068z"/>
</g>
</svg>
