<?xml version="1.0" encoding="iso-8859-1"?>
<!-- Generator: Adobe Illustrator 19.0.0, SVG Export Plug-In . SVG Version: 6.00 Build 0)  -->
<svg version="1.1" id="Layer_1" xmlns="http://www.w3.org/2000/svg" xmlns:xlink="http://www.w3.org/1999/xlink" x="0px" y="0px"
	 viewBox="0 0 224.842 322.338" style="enable-background:new 0 0 224.842 322.338;" xml:space="preserve">
<g id="XMLID_484_">
	<g id="XMLID_553_">
		<g id="XMLID_1044_">
			<path id="XMLID_1050_" d="M120.644,91.318c-2.808-1.165-5.716-1.725-8.57-1.725c-5.671,0-11.171,2.24-15.442,6.502
				c-6.421,6.421-8.245,15.623-4.777,24.012c3.486,8.389,11.279,13.6,20.364,13.6c12.146,0,22.025-9.879,22.025-22.025
				C134.244,102.597,129.043,94.794,120.644,91.318z M112.201,121.064c-5.671,0-9.419-4.642-9.419-9.473
				c0-2.312,0.849-4.66,2.763-6.574c1.923-1.914,4.271-2.772,6.574-2.772c4.84,0,9.473,3.748,9.473,9.419
				C121.593,116.856,117.393,121.064,112.201,121.064z M120.644,91.318c-2.808-1.165-5.716-1.725-8.57-1.725
				c-5.671,0-11.171,2.24-15.442,6.502c-6.421,6.421-8.245,15.623-4.777,24.012c3.486,8.389,11.279,13.6,20.364,13.6
				c12.146,0,22.025-9.879,22.025-22.025C134.244,102.597,129.043,94.794,120.644,91.318z M112.201,121.064
				c-5.671,0-9.419-4.642-9.419-9.473c0-2.312,0.849-4.66,2.763-6.574c1.923-1.914,4.271-2.772,6.574-2.772
				c4.84,0,9.473,3.748,9.473,9.419C121.593,116.856,117.393,121.064,112.201,121.064z M120.644,91.318
				c-2.808-1.165-5.716-1.725-8.57-1.725c-5.671,0-11.171,2.24-15.442,6.502c-6.421,6.421-8.245,15.623-4.777,24.012
				c3.486,8.389,11.279,13.6,20.364,13.6c12.146,0,22.025-9.879,22.025-22.025C134.244,102.597,129.043,94.794,120.644,91.318z
				 M112.201,121.064c-5.671,0-9.419-4.642-9.419-9.473c0-2.312,0.849-4.66,2.763-6.574c1.923-1.914,4.271-2.772,6.574-2.772
				c4.84,0,9.473,3.748,9.473,9.419C121.593,116.856,117.393,121.064,112.201,121.064z M120.644,91.318
				c-2.808-1.165-5.716-1.725-8.57-1.725c-5.671,0-11.171,2.24-15.442,6.502c-6.421,6.421-8.245,15.623-4.777,24.012
				c3.486,8.389,11.279,13.6,20.364,13.6c12.146,0,22.025-9.879,22.025-22.025C134.244,102.597,129.043,94.794,120.644,91.318z
				 M112.201,121.064c-5.671,0-9.419-4.642-9.419-9.473c0-2.312,0.849-4.66,2.763-6.574c1.923-1.914,4.271-2.772,6.574-2.772
				c4.84,0,9.473,3.748,9.473,9.419C121.593,116.856,117.393,121.064,112.201,121.064z M136.52,85.917
				c-6.574-6.141-15.496-9.663-24.491-9.663c-9.292,0-18.115,3.693-24.825,10.412c-10.313,10.304-13.248,25.078-7.676,38.551
				c5.581,13.464,18.106,21.836,32.681,21.836c19.506,0,35.381-15.867,35.381-35.372C147.591,101.73,143.654,92.582,136.52,85.917z
				 M112.21,139.865c-9.076,0-17.149-4.064-22.368-10.963c-0.415-0.551-0.822-1.129-1.192-1.716
				c-0.289-0.433-0.569-0.885-0.831-1.346c-0.262-0.461-0.506-0.93-0.749-1.409c-0.316-0.641-0.614-1.3-0.894-1.969
				c-0.741-1.797-1.3-3.621-1.671-5.454c-1.833-9.112,0.93-18.422,7.775-25.258c0.479-0.479,0.966-0.921,1.454-1.355
				c0.316-0.271,0.632-0.457,0.948-0.71c0.181-0.144,0.352-0.348,0.533-0.348h0.009c0.469-1,0.948-0.789,1.427-1.114
				c0.388-0.262,0.786-0.557,1.174-0.792c0.388-0.235,0.786-0.482,1.192-0.699c0.406-0.217,0.813-0.435,1.219-0.634
				c0.415-0.199,0.831-0.394,1.246-0.565c0.424-0.172,0.84-0.337,1.264-0.49c0.424-0.154,0.858-0.299,1.291-0.435
				c2.592-0.786,5.274-1.193,8.001-1.193c3.657,0,7.369,0.731,10.963,2.221c10.737,4.443,17.402,14.421,17.402,26.044
				C140.403,127.223,127.76,139.865,112.21,139.865z M120.644,91.318c-2.808-1.165-5.716-1.725-8.57-1.725
				c-5.671,0-11.171,2.24-15.442,6.502c-6.421,6.421-8.245,15.623-4.777,24.012c3.486,8.389,11.279,13.6,20.364,13.6
				c12.146,0,22.025-9.879,22.025-22.025C134.244,102.597,129.043,94.794,120.644,91.318z M112.201,121.064
				c-5.671,0-9.419-4.642-9.419-9.473c0-2.312,0.849-4.66,2.763-6.574c1.923-1.914,4.271-2.772,6.574-2.772
				c4.84,0,9.473,3.748,9.473,9.419C121.593,116.856,117.393,121.064,112.201,121.064z M136.52,85.917
				c-6.574-6.141-15.496-9.663-24.491-9.663c-9.292,0-18.115,3.693-24.825,10.412c-10.313,10.304-13.248,25.078-7.676,38.551
				c5.581,13.464,18.106,21.836,32.681,21.836c19.506,0,35.381-15.867,35.381-35.372C147.591,101.73,143.654,92.582,136.52,85.917z
				 M112.21,139.865c-9.076,0-17.149-4.064-22.368-10.963c-0.415-0.551-0.822-1.129-1.192-1.716
				c-0.289-0.433-0.569-0.885-0.831-1.346c-0.262-0.461-0.506-0.93-0.749-1.409c-0.316-0.641-0.614-1.3-0.894-1.969
				c-0.741-1.797-1.3-3.621-1.671-5.454c-1.833-9.112,0.93-18.422,7.775-25.258c0.479-0.479,0.966-0.921,1.454-1.355
				c0.316-0.271,0.632-0.457,0.948-0.71c0.181-0.144,0.352-0.348,0.533-0.348h0.009c0.469-1,0.948-0.789,1.427-1.114
				c0.388-0.262,0.786-0.557,1.174-0.792c0.388-0.235,0.786-0.482,1.192-0.699c0.406-0.217,0.813-0.435,1.219-0.634
				c0.415-0.199,0.831-0.394,1.246-0.565c0.424-0.172,0.84-0.337,1.264-0.49c0.424-0.154,0.858-0.299,1.291-0.435
				c2.592-0.786,5.274-1.193,8.001-1.193c3.657,0,7.369,0.731,10.963,2.221c10.737,4.443,17.402,14.421,17.402,26.044
				C140.403,127.223,127.76,139.865,112.21,139.865z M120.644,91.318c-2.808-1.165-5.716-1.725-8.57-1.725
				c-5.671,0-11.171,2.24-15.442,6.502c-6.421,6.421-8.245,15.623-4.777,24.012c3.486,8.389,11.279,13.6,20.364,13.6
				c12.146,0,22.025-9.879,22.025-22.025C134.244,102.597,129.043,94.794,120.644,91.318z M112.201,121.064
				c-5.671,0-9.419-4.642-9.419-9.473c0-2.312,0.849-4.66,2.763-6.574c1.923-1.914,4.271-2.772,6.574-2.772
				c4.84,0,9.473,3.748,9.473,9.419C121.593,116.856,117.393,121.064,112.201,121.064z M111.813,50.148
				c-15.108,0-30.496,5.599-43.012,18.115c-12.516,12.525-18.115,27.913-18.115,43.012c0,31.588,24.527,61.886,61.57,61.886
				c33.927,0,61.443-27.507,61.443-61.443C173.698,74.675,143.401,50.148,111.813,50.148z M112.21,150.666
				c-16.065,0-29.864-9.22-36.013-24.066s-2.908-31.128,8.452-42.488c7.396-7.396,17.122-11.469,27.38-11.469
				c9.897,0,19.723,3.874,26.956,10.638c7.875,7.351,12.218,17.438,12.218,28.401C151.204,133.174,133.711,150.666,112.21,150.666z
				 M136.52,85.917c-6.574-6.141-15.496-9.663-24.491-9.663c-9.292,0-18.115,3.693-24.825,10.412
				c-10.313,10.304-13.248,25.078-7.676,38.551c5.581,13.464,18.106,21.836,32.681,21.836c19.506,0,35.381-15.867,35.381-35.372
				C147.591,101.73,143.654,92.582,136.52,85.917z M112.21,139.865c-9.076,0-17.149-4.064-22.368-10.963
				c-0.415-0.551-0.822-1.129-1.192-1.716c-0.289-0.433-0.569-0.885-0.831-1.346c-0.262-0.461-0.506-0.93-0.749-1.409
				c-0.316-0.641-0.614-1.3-0.894-1.969c-0.741-1.797-1.3-3.621-1.671-5.454c-1.833-9.112,0.93-18.422,7.775-25.258
				c0.479-0.479,0.966-0.921,1.454-1.355c0.316-0.271,0.632-0.457,0.948-0.71c0.181-0.144,0.352-0.348,0.533-0.348h0.009
				c0.469-1,0.948-0.789,1.427-1.114c0.388-0.262,0.786-0.557,1.174-0.792c0.388-0.235,0.786-0.482,1.192-0.699
				c0.406-0.217,0.813-0.435,1.219-0.634c0.415-0.199,0.831-0.394,1.246-0.565c0.424-0.172,0.84-0.337,1.264-0.49
				c0.424-0.154,0.858-0.299,1.291-0.435c2.592-0.786,5.274-1.193,8.001-1.193c3.657,0,7.369,0.731,10.963,2.221
				c10.737,4.443,17.402,14.421,17.402,26.044C140.403,127.223,127.76,139.865,112.21,139.865z M120.644,91.318
				c-2.808-1.165-5.716-1.725-8.57-1.725c-5.671,0-11.171,2.24-15.442,6.502c-6.421,6.421-8.245,15.623-4.777,24.012
				c3.486,8.389,11.279,13.6,20.364,13.6c12.146,0,22.025-9.879,22.025-22.025C134.244,102.597,129.043,94.794,120.644,91.318z
				 M112.201,121.064c-5.671,0-9.419-4.642-9.419-9.473c0-2.312,0.849-4.66,2.763-6.574c1.923-1.914,4.271-2.772,6.574-2.772
				c4.84,0,9.473,3.748,9.473,9.419C121.593,116.856,117.393,121.064,112.201,121.064z M120.644,91.318
				c-2.808-1.165-5.716-1.725-8.57-1.725c-5.671,0-11.171,2.24-15.442,6.502c-6.421,6.421-8.245,15.623-4.777,24.012
				c3.486,8.389,11.279,13.6,20.364,13.6c12.146,0,22.025-9.879,22.025-22.025C134.244,102.597,129.043,94.794,120.644,91.318z
				 M112.201,121.064c-5.671,0-9.419-4.642-9.419-9.473c0-2.312,0.849-4.66,2.763-6.574c1.923-1.914,4.271-2.772,6.574-2.772
				c4.84,0,9.473,3.748,9.473,9.419C121.593,116.856,117.393,121.064,112.201,121.064z M120.644,91.318
				c-2.808-1.165-5.716-1.725-8.57-1.725c-5.671,0-11.171,2.24-15.442,6.502c-6.421,6.421-8.245,15.623-4.777,24.012
				c3.486,8.389,11.279,13.6,20.364,13.6c12.146,0,22.025-9.879,22.025-22.025C134.244,102.597,129.043,94.794,120.644,91.318z
				 M112.201,121.064c-5.671,0-9.419-4.642-9.419-9.473c0-2.312,0.849-4.66,2.763-6.574c1.923-1.914,4.271-2.772,6.574-2.772
				c4.84,0,9.473,3.748,9.473,9.419C121.593,116.856,117.393,121.064,112.201,121.064z"/>
			<g id="XMLID_1048_">
				<path id="XMLID_1049_" d="M45.476,92.626c3.051-11.355,9.12-21.335,18.03-30.245c12.949-12.949,28.741-19.803,46.564-19.949
					L109,42.75V1.067c-53,0-96.575,39.271-108,90.271h44.47L45.476,92.626z"/>
			</g>
			<g id="XMLID_1045_">
				<path id="XMLID_1047_" d="M192.386,183.418L117,258.84V180.4c36-2.407,64.137-32.294,64.137-68.681
					c0-19.388-7.602-37.174-21.435-50.09C148.101,50.787,133,44.13,117,42.935V1.336c32,0,58.849,13.147,77.533,33.156
					C231.068,73.619,236.846,138.958,192.386,183.418z"/>
			</g>
		</g>
	</g>
	<g id="XMLID_948_">
		<g id="XMLID_1258_">
			<path id="XMLID_1269_" d="M46.995,309.878c-1.47,1.87-3.75,3.01-6.43,3.01c-4.36,0-7.91-3.35-7.91-8.17
				c0-4.76,3.55-8.18,7.91-8.18c2.21,0,4.42,0.81,6.03,3.02l7.57-5.9c-3.28-4.02-8.17-6.63-13.6-6.63c-9.72,0-17.56,7.9-17.56,17.69
				c0,9.65,7.84,17.62,17.56,17.62c5.56,0,10.65-2.61,13.87-6.63L46.995,309.878z"/>
			<path id="XMLID_1267_" d="M82,287.338v17.24c0,6.23-3.89,8.31-8.11,8.31c-3.82,0-6.89-3.42-6.89-8.31v-17.24h-9v18.05
				c0,9.31,5.97,16.95,14.88,16.95c3.22,0,7.12-1.01,9.12-3.15v2.15h10v-34H82z"/>
			<path id="XMLID_1265_" d="M141,296.338v-9h-8v-10.9l-10,6.9v4h-13v-10.9l-9,6.9v4h-5v9h5v11.26c0,8.78,7,14.74,17,14.74v-9.11
				c-4,0-8-1.88-8-5.9v-10.99h13v11.26c0,8.78,8,14.74,18,14.74v-9.11c-5,0-8-1.88-8-5.9v-10.99H141z"/>
			<path id="XMLID_1261_" d="M162.435,312.888c-1,0-1.94-0.07-2.81-0.4l18.89-13.53c-2.08-6.3-8.51-11.93-16.88-11.93
				c-9.72,0-17.56,7.9-17.56,17.69c0,9.65,8.18,17.62,18.36,17.62c6.03,0,11.99-2.75,14.87-7.04l-7.57-5.83
				C168.195,311.888,165.315,312.888,162.435,312.888z M153.725,304.718c0-4.76,3.55-8.18,7.91-8.18c1.81,0,3.35,0.61,4.69,1.61
				l-12.33,8.78C153.795,306.258,153.725,305.518,153.725,304.718z"/>
			<path id="XMLID_1259_" d="M193.093,289.438c-0.24,0.21-0.093,0.43-1.093,0.67v-2.77h-9v34h9v-16.62c0-4.9,2.756-7.62,5.966-8.09
				C196.026,294.438,194.513,292.028,193.093,289.438z"/>
		</g>
	</g>
</g>
</svg>
